<svg width="164" height="60" viewBox="0 0 164 60" fill="none" xmlns="http://www.w3.org/2000/svg">
<path d="M83.2536 39.3375C82.8909 39.4766 82.4291 39.5462 81.876 39.5462C81.2671 39.5462 80.6376 39.4253 79.9899 39.1813C79.3376 38.9373 78.813 38.6339 78.4128 38.2679L76.5654 40.6706C77.1732 41.2784 77.9612 41.7311 78.9328 42.0265C79.9055 42.3241 80.9364 42.4746 82.03 42.4746C82.7063 42.4746 83.3722 42.3948 84.0211 42.2386C84.6745 42.0801 85.2537 41.8394 85.768 41.519C86.2778 41.1986 86.6871 40.7937 86.9893 40.3045C87.2915 39.8176 87.4455 39.2349 87.4455 38.5541C87.4455 37.5437 87.1626 36.7352 86.6004 36.1274C86.0371 35.5162 85.1306 35.0407 83.8808 34.6883C82.9616 34.4477 82.233 34.2299 81.6947 34.0372C81.1565 33.8467 80.8873 33.548 80.8873 33.1488C80.8873 32.8706 81.0184 32.6505 81.2784 32.4829C81.5373 32.3175 81.9547 32.2354 82.526 32.2354C83.1681 32.2354 83.7439 32.338 84.2559 32.5479C84.7691 32.7566 85.223 32.9915 85.6221 33.2515L87.2095 30.7723C86.5515 30.3196 85.8319 29.9741 85.0507 29.7415C84.2719 29.5043 83.3608 29.388 82.3208 29.388C81.5921 29.388 80.9113 29.4792 80.2784 29.6616C79.6432 29.8441 79.097 30.1052 78.6397 30.4451C78.1767 30.786 77.8175 31.1863 77.5575 31.647C77.2986 32.1077 77.1675 32.6243 77.1675 33.2013C77.1675 33.7589 77.277 34.2447 77.4937 34.6621C77.7092 35.0806 77.9954 35.4387 78.3535 35.734C78.7093 36.0316 79.1152 36.2791 79.5759 36.4787C80.0344 36.6782 80.4996 36.8402 80.9672 36.9622C81.5385 37.1184 82.0117 37.2564 82.3857 37.3784C82.7586 37.5027 83.0495 37.6179 83.257 37.7342C83.4646 37.8437 83.6082 37.968 83.6858 38.0968C83.7644 38.2291 83.8032 38.3705 83.8032 38.5302C83.7998 38.9293 83.6185 39.1973 83.2536 39.3375Z" fill="white"/>
<path d="M71.5832 37.6395C71.5832 37.9885 71.5159 38.2941 71.3745 38.553C71.2366 38.8141 71.0575 39.0308 70.842 39.2075C70.6242 39.3808 70.3721 39.5143 70.0882 39.6112C69.802 39.7059 69.5112 39.756 69.2136 39.756C68.0002 39.756 67.3936 39.2486 67.3936 38.2405C67.3936 37.6988 67.6091 37.2815 68.0447 36.9873C68.4792 36.6896 69.2147 36.5437 70.257 36.5437C70.5683 36.5437 70.8466 36.5573 71.0883 36.5847C71.3324 36.6087 71.4966 36.6292 71.5832 36.6463V37.6395ZM70.7108 34.2196C70.2684 34.2014 69.8294 34.1923 69.3972 34.1923C68.6012 34.1923 67.8577 34.288 67.1724 34.4785C66.4859 34.6712 65.8928 34.9517 65.3888 35.328C64.8848 35.7032 64.4902 36.1696 64.2051 36.7261C63.9201 37.2815 63.7764 37.9201 63.7764 38.6339C63.7764 39.3638 63.911 39.9727 64.179 40.4585C64.4481 40.95 64.7845 41.3343 65.1927 41.6228C65.6021 41.909 66.0434 42.1131 66.5213 42.2363C66.9991 42.356 67.4529 42.4176 67.8873 42.4176C68.6685 42.4176 69.3743 42.2876 70.0072 42.0242C70.6401 41.7665 71.1682 41.3924 71.5821 40.9009L71.687 42.055H75.1993V34.9232C75.1993 33.2332 74.7569 31.8888 73.8719 30.8875C72.9882 29.884 71.6174 29.3857 69.7598 29.3857C69.0322 29.3857 68.3845 29.4336 67.8201 29.5294C67.2567 29.6274 66.7504 29.7517 66.2989 29.908C65.8484 30.0653 65.4561 30.2387 65.1288 30.4302C64.7981 30.6195 64.5028 30.8123 64.2417 31.0038L65.7777 33.3051C66.1574 33.0405 66.6238 32.8067 67.1701 32.5969C67.7174 32.3882 68.405 32.2856 69.2386 32.2856C69.5499 32.2856 69.8454 32.3141 70.1236 32.3757C70.4007 32.4361 70.6481 32.5399 70.8659 32.6881C71.0815 32.8375 71.2537 33.0177 71.3837 33.2366C71.5125 33.4545 71.5787 33.7213 71.5787 34.0337V34.2949C71.4441 34.2618 71.1533 34.2356 70.7108 34.2196Z" fill="white"/>
<path d="M93.1701 24.6327H89.1617V28.0002H93.1701V24.6327Z" fill="white"/>
<path d="M58.9539 35.994C58.9539 35.0213 59.2287 34.2675 59.7738 33.7361C60.3188 33.2036 61.0362 32.9402 61.9199 32.9402C62.4422 32.9402 62.8915 33.0006 63.2747 33.1226L63.8711 29.8042C63.6453 29.7198 63.4161 29.6594 63.1823 29.624C62.9486 29.5887 62.6658 29.5704 62.3362 29.5704C61.4695 29.5704 60.7625 29.762 60.2163 30.144C59.6701 30.526 59.239 30.9297 58.93 31.346L58.7977 29.8031H55.2078V42.055H58.955V35.994H58.9539Z" fill="white"/>
<path d="M107.642 27.8702H110.063C110.792 27.8702 111.362 28.08 111.78 28.4974C112.197 28.917 112.403 29.4815 112.403 30.1976C112.403 30.859 112.197 31.4064 111.78 31.8443C111.362 32.2765 110.792 32.4954 110.063 32.4954H107.642V27.8702ZM107.642 35.6553H109.829L113.057 42.0561H117.375L113.525 35.0794C114.426 34.5766 115.124 33.9015 115.619 33.0553C116.115 32.2137 116.36 31.2251 116.36 30.0904C116.36 29.3446 116.236 28.6376 115.985 27.9773C115.732 27.3148 115.349 26.7366 114.839 26.2417C114.326 25.7445 113.691 25.3511 112.926 25.0638C112.16 24.7753 111.278 24.6338 110.272 24.6338H103.819V42.0561H107.643V35.6553H107.642Z" fill="white"/>
<path d="M98.9061 24.6327H95.1612V42.055H98.9061V24.6327Z" fill="white"/>
<path d="M130.503 38.5803H121.991V34.8194H128.158V31.4759H121.991V28.08H129.93V24.6338H118.063V42.0561H130.503V38.5803Z" fill="white"/>
<path d="M43.5887 34.4796H46.1386C46.4317 34.4796 46.7544 34.5081 47.1022 34.5709C47.4478 34.6313 47.7716 34.7453 48.0646 34.913C48.36 35.076 48.6029 35.3075 48.7956 35.6029C48.9826 35.9005 49.0807 36.2814 49.0807 36.7524C49.0807 37.2746 48.9804 37.6851 48.7808 37.9805C48.5824 38.2793 48.3338 38.5028 48.0396 38.6613C47.7442 38.8175 47.4237 38.9167 47.0771 38.9601C46.7293 39.0045 46.418 39.0262 46.1397 39.0262H43.5899V34.4796H43.5887ZM43.5887 27.6911H45.9049C46.1831 27.6911 46.4648 27.7196 46.751 27.7801C47.0372 27.8417 47.2937 27.9466 47.5184 28.0948C47.743 28.2453 47.9244 28.4438 48.0646 28.6946C48.2037 28.9478 48.2744 29.2648 48.2744 29.6468C48.2744 30.0129 48.2037 30.3231 48.0646 30.5751C47.9244 30.826 47.7476 31.0278 47.5321 31.176C47.3154 31.3231 47.0611 31.4326 46.7772 31.501C46.4921 31.5695 46.1991 31.606 45.9049 31.606H43.5887V27.6911ZM46.2697 42.0561C47.3108 42.0561 48.2506 41.9626 49.0933 41.779C49.9337 41.5977 50.6453 41.3046 51.2269 40.9032C51.8073 40.5075 52.2578 39.9898 52.5805 39.3649C52.9021 38.7388 53.0606 37.9725 53.0606 37.0659C53.0606 36.3692 52.9363 35.7671 52.6854 35.2539C52.4334 34.7374 52.1243 34.3109 51.7605 33.971C51.3967 33.6312 51.0101 33.3701 50.603 33.1899C50.1936 33.0074 49.8333 32.8797 49.522 32.809C49.7307 32.7577 49.9849 32.6459 50.2894 32.4715C50.5939 32.297 50.8813 32.0575 51.1492 31.7519C51.4172 31.4474 51.6522 31.0814 51.8517 30.6572C52.0501 30.2295 52.1505 29.7369 52.1505 29.1804C52.1505 28.5874 52.0468 28.0184 51.8404 27.4688C51.6305 26.9214 51.2918 26.4379 50.8208 26.0205C50.3544 25.6031 49.7466 25.2667 49.0008 25.0159C48.2562 24.7627 47.3439 24.635 46.2697 24.635H39.764V42.0572H46.2697V42.0561Z" fill="white"/>
<path d="M93.0377 29.803H89.2928V42.055H93.0377V29.803Z" fill="white"/>
<path d="M129.726 59.126H136.866L163.105 0H155.961L129.726 59.126Z" fill="#F9B000"/>
<path d="M3.92853 24.6327H0V42.0515H3.92853V24.6327Z" fill="#005A69"/>
<path d="M110.062 27.8702H107.641V32.4966H110.062C110.791 32.4966 111.361 32.2776 111.778 31.8454C112.196 31.4064 112.402 30.8613 112.402 30.1987C112.402 29.4837 112.196 28.9181 111.778 28.4996C111.361 28.0811 110.791 27.8702 110.062 27.8702Z" fill="#035B6A"/>
<path d="M70.2559 36.5437C69.2137 36.5437 68.4792 36.6896 68.0436 36.9873C67.6091 37.2826 67.3925 37.7 67.3925 38.2405C67.3925 39.2497 67.9991 39.756 69.2125 39.756C69.5101 39.756 69.7998 39.7081 70.0871 39.6112C70.3722 39.5143 70.6231 39.3808 70.8409 39.2087C71.0565 39.0319 71.2355 38.8141 71.3735 38.553C71.5137 38.293 71.5822 37.9873 71.5822 37.6395V36.6463C71.4955 36.6303 71.3312 36.6087 71.0872 36.5847C70.8454 36.5573 70.5684 36.5437 70.2559 36.5437Z" fill="#035B6A"/>
<path d="M46.776 31.5033C47.0611 31.4349 47.3143 31.3254 47.531 31.1772C47.7465 31.0301 47.9232 30.8271 48.0635 30.5762C48.2026 30.3231 48.2733 30.0152 48.2733 29.648C48.2733 29.2671 48.2026 28.9489 48.0635 28.6958C47.9232 28.4449 47.7419 28.2465 47.5173 28.0959C47.2926 27.9466 47.036 27.8428 46.7497 27.7812C46.4635 27.7196 46.1819 27.6923 45.9048 27.6923H43.5876V31.6071H45.9048C46.1979 31.6071 46.4909 31.5717 46.776 31.5033Z" fill="#035B6A"/>
<path d="M48.0635 34.9118C47.7716 34.7442 47.4477 34.6313 47.1022 34.5697C46.7544 34.5093 46.4317 34.4785 46.1386 34.4785H43.5876V39.0228H46.1386C46.4157 39.0228 46.727 39.0011 47.0748 38.9566C47.4226 38.9133 47.7419 38.8129 48.0372 38.6579C48.3326 38.4994 48.5812 38.2758 48.7784 37.9771C48.9791 37.6829 49.0783 37.2723 49.0783 36.7489C49.0783 36.2779 48.9814 35.8982 48.7932 35.5994C48.6028 35.3075 48.3588 35.0749 48.0635 34.9118Z" fill="#035B6A"/>
<path d="M130.503 42.0561H118.063V24.6338H129.929V28.08H121.991V31.4748H128.158V34.8183H121.991V38.5792H130.503V42.0561ZM113.055 42.0561L109.828 35.6553H107.641V42.0561H103.816V24.6338H110.27C111.275 24.6338 112.159 24.7752 112.923 25.0638C113.69 25.3511 114.325 25.7445 114.837 26.2417C115.346 26.7366 115.731 27.3159 115.983 27.9773C116.233 28.6376 116.358 29.3446 116.358 30.0904C116.358 31.2251 116.112 32.2137 115.616 33.0553C115.122 33.9015 114.424 34.5777 113.522 35.0794L117.373 42.0561H113.055ZM98.906 42.0561H95.1611V24.6338H98.906V42.0561ZM93.169 28.0013H89.1606V24.6338H93.169V28.0013ZM93.0378 42.0561H89.2929V29.8042H93.0378V42.0561ZM86.9871 40.3034C86.6849 40.7926 86.2767 41.1974 85.7658 41.5179C85.2515 41.8383 84.6733 42.0789 84.0188 42.2374C83.3699 42.3937 82.7062 42.4735 82.0277 42.4735C80.9341 42.4735 79.9032 42.323 78.9305 42.0253C77.9589 41.73 77.171 41.2784 76.5632 40.6694L78.4106 38.2667C78.8108 38.6339 79.3354 38.9372 79.9877 39.1801C80.6354 39.4242 81.2649 39.5451 81.8738 39.5451C82.4269 39.5451 82.8899 39.4766 83.2514 39.3364C83.6163 39.1961 83.7976 38.9281 83.7976 38.5267C83.7976 38.3682 83.7588 38.2268 83.6801 38.0934C83.6026 37.9645 83.4589 37.8402 83.2514 37.7308C83.0427 37.6144 82.753 37.4993 82.3801 37.375C82.006 37.253 81.5329 37.115 80.9615 36.9587C80.494 36.8356 80.0287 36.6737 79.5703 36.4752C79.1107 36.2757 78.7025 36.0282 78.3479 35.7306C77.9898 35.4352 77.7047 35.0772 77.488 34.6587C77.2714 34.2413 77.1619 33.7555 77.1619 33.1979C77.1619 32.622 77.2941 32.1043 77.5519 31.6436C77.8119 31.184 78.1711 30.7826 78.6341 30.4416C79.0925 30.1018 79.6376 29.8407 80.2728 29.6582C80.9057 29.4758 81.5865 29.3845 82.3152 29.3845C83.3563 29.3845 84.2662 29.5009 85.0451 29.7381C85.8262 29.9707 86.5458 30.3162 87.205 30.7689L85.6176 33.248C85.2185 32.988 84.7645 32.752 84.2525 32.5445C83.7394 32.3346 83.1635 32.232 82.5215 32.232C81.9491 32.232 81.5316 32.313 81.2739 32.4794C81.0128 32.6471 80.8817 32.8672 80.8817 33.1454C80.8817 33.5445 81.1508 33.8422 81.6891 34.0337C82.2273 34.2265 82.956 34.4443 83.8751 34.6849C85.1249 35.0361 86.0315 35.5128 86.5948 36.124C87.1581 36.7318 87.4398 37.5415 87.4398 38.5507C87.4432 39.2337 87.2893 39.8165 86.9871 40.3034ZM75.2004 42.0561H71.6882L71.5822 40.9021C71.1682 41.3924 70.6413 41.7676 70.0084 42.0253C69.3744 42.2899 68.6696 42.4187 67.8885 42.4187C67.4552 42.4187 67.0002 42.3583 66.5224 42.2374C66.0446 42.1131 65.6021 41.9101 65.1928 41.6239C64.7856 41.3343 64.4493 40.9511 64.1801 40.4596C63.9122 39.9738 63.7776 39.366 63.7776 38.635C63.7776 37.9212 63.9212 37.2837 64.2052 36.7272C64.4914 36.1708 64.8871 35.7044 65.39 35.3292C65.8929 34.954 66.4871 34.6723 67.1736 34.4808C67.8589 34.2892 68.6012 34.1945 69.3984 34.1945C69.8294 34.1945 70.2696 34.2025 70.7121 34.2208C71.1523 34.2367 71.4453 34.263 71.5822 34.2983V34.0372C71.5822 33.7259 71.516 33.4579 71.3872 33.2401C71.2572 33.0211 71.0849 32.8409 70.8682 32.6927C70.6504 32.5433 70.4041 32.4395 70.127 32.3791C69.8488 32.3175 69.5534 32.289 69.2421 32.289C68.4074 32.289 67.7198 32.3916 67.1736 32.6003C66.6273 32.809 66.161 33.0439 65.7801 33.3085L64.2439 31.0073C64.5039 30.8168 64.7994 30.6241 65.1301 30.4337C65.4573 30.2421 65.8507 30.0687 66.3 29.9114C66.7516 29.7551 67.259 29.6297 67.8224 29.5316C68.3857 29.4359 69.0334 29.388 69.7609 29.388C71.6197 29.388 72.9893 29.8874 73.8731 30.8898C74.7592 31.891 75.2016 33.2355 75.2016 34.9266V42.0561H75.2004ZM61.9199 32.9401C61.0373 32.9401 60.3188 33.2047 59.7738 33.7373C59.2287 34.2675 58.9539 35.0213 58.9539 35.9952V42.0572H55.2078V29.8042H58.7977L58.9288 31.3482C59.2402 30.9309 59.67 30.5283 60.2151 30.1463C60.7625 29.7643 61.4694 29.5716 62.335 29.5716C62.6645 29.5716 62.9474 29.5898 63.1823 29.6263C63.415 29.6616 63.6453 29.7221 63.8711 29.8053L63.2747 33.1249C62.8915 33.0006 62.4411 32.9401 61.9199 32.9401ZM52.5793 39.3649C52.2566 39.9898 51.8061 40.5064 51.2257 40.9021C50.6441 41.3035 49.9325 41.5977 49.0921 41.779C48.2494 41.9615 47.3098 42.0561 46.2686 42.0561H39.7641V24.6338H46.2686C47.3428 24.6338 48.2551 24.7616 48.9998 25.0136C49.7456 25.2667 50.3534 25.6009 50.8198 26.0182C51.2907 26.4356 51.6295 26.9191 51.8393 27.4676C52.0457 28.0173 52.1494 28.5863 52.1494 29.1793C52.1494 29.7358 52.0491 30.2273 51.8507 30.656C51.6511 31.0802 51.4173 31.4474 51.1482 31.7496C50.8802 32.0564 50.5928 32.2947 50.2884 32.4692C49.9827 32.6437 49.7296 32.7554 49.521 32.8079C49.8323 32.8774 50.1926 33.0063 50.602 33.1888C51.0091 33.3689 51.3945 33.6301 51.7595 33.9699C52.1232 34.3097 52.4322 34.7362 52.6842 35.2528C52.9362 35.7648 53.0594 36.368 53.0594 37.0648C53.0594 37.9725 52.9009 38.7365 52.5793 39.3649ZM31.3871 37.9793C31.1886 38.277 30.9412 38.5005 30.6458 38.659C30.3505 38.8152 30.0301 38.9144 29.6834 38.9578C29.3368 39.0034 29.0242 39.0239 28.746 39.0239H26.195V34.4808H28.746C29.0402 34.4808 29.3607 34.5093 29.7085 34.572C30.0574 34.6324 30.3744 34.7465 30.6732 34.913C30.9663 35.076 31.2103 35.3075 31.4008 35.6029C31.5923 35.9005 31.687 36.2814 31.687 36.7523C31.6881 37.2746 31.5855 37.684 31.3871 37.9793ZM26.195 27.6911H28.5122C28.7905 27.6911 29.0733 27.7196 29.3595 27.7801C29.6446 27.8416 29.9012 27.9454 30.127 28.0948C30.3505 28.2453 30.533 28.4438 30.6732 28.6946C30.8112 28.9478 30.8819 29.2659 30.8819 29.6468C30.8819 30.014 30.8112 30.323 30.6732 30.5751C30.533 30.8271 30.3551 31.0289 30.1396 31.176C29.9218 31.3243 29.6697 31.4338 29.3858 31.5022C29.0995 31.5706 28.8076 31.6059 28.5122 31.6059H26.195V27.6911ZM155.628 0.0011425H50.6898L35.1548 35.0213C34.9301 34.6142 34.6724 34.255 34.3668 33.971C34.003 33.6312 33.6175 33.3701 33.2082 33.1899C32.8022 33.0074 32.4407 32.8786 32.1283 32.809C32.3358 32.7566 32.5913 32.6448 32.8969 32.4703C33.1991 32.2959 33.4842 32.0575 33.7556 31.7508C34.0213 31.4474 34.2596 31.0802 34.4569 30.6572C34.6564 30.2284 34.7557 29.7369 34.7557 29.1804C34.7557 28.5874 34.6531 28.0184 34.4444 27.4688C34.2357 26.9202 33.8992 26.4367 33.4306 26.0194C32.9596 25.602 32.3553 25.2667 31.6083 25.0147C30.8614 24.7627 29.9502 24.635 28.8748 24.635H22.368V42.0538H28.8748C29.9171 42.0538 30.8591 41.9615 31.6995 41.7801C31.89 41.7391 32.0507 41.6707 32.2286 41.6171L24.4605 59.1283H129.398H129.727L155.962 0.00228397H155.628V0.0011425Z" fill="#005A69"/>
<path d="M14.9079 31.8443C14.4916 32.2776 13.918 32.4954 13.1893 32.4954H10.7684V27.869H13.1893C13.918 27.869 14.4916 28.08 14.9079 28.4974C15.3241 28.9159 15.5305 29.4815 15.5305 30.1976C15.5305 30.859 15.3241 31.4064 14.9079 31.8443ZM18.7463 33.0553C19.2412 32.2137 19.4886 31.2251 19.4886 30.0904C19.4886 29.3446 19.3609 28.6376 19.1078 27.9773C18.858 27.3137 18.476 26.7366 17.9651 26.2417C17.4519 25.7445 16.8146 25.3511 16.0517 25.0626C15.2888 24.7753 14.4038 24.6327 13.3958 24.6327H6.94244V42.0515H10.7672V35.6553H12.9521L16.1793 42.0515H20.5001L16.6491 35.0783C17.5511 34.5766 18.2502 33.9003 18.7463 33.0553Z" fill="#005A69"/>
</svg>
